<svg xmlns="http://www.w3.org/2000/svg" viewBox="0 0 315.29 126.76"><g id="GUIDES"><rect x="236.85" y="78.23" width="39.22" height="13.07" fill="none"/><rect x="16.38" width="39.22" height="39.22" fill="none"/><rect y="58.73" width="39.22" height="39.22" fill="none"/><rect x="276.07" y="77.33" width="39.22" height="39.22" fill="none"/><rect x="55.17" y="78.66" width="39.22" height="39.22" fill="none"/><rect x="148.84" y="87.53" width="39.22" height="39.22" fill="none"/></g><g id="Layer_3" data-name="Layer 3"><path d="M197.57,45.63c0,1.1-18.67-11.08-61.12-11.08S75.34,46.73,75.34,45.63c0-.37,24.12-16.6,61.11-16.6s61.12,16.23,61.12,16.6" fill="#fff"/><path d="M119.84,52c1.54,1.49,2.31,3.78,2.31,6.8v18.5H117V60.41a8.14,8.14,0,0,0-1.31-4.8,4.57,4.57,0,0,0-3.78-1.52,5.85,5.85,0,0,0-2.61.57,5.74,5.74,0,0,0-1.95,1.58,7.7,7.7,0,0,0-1.25,2.36,9,9,0,0,0-.45,2.87V77.33h-5.13V50.5h5.13v4.2l0,0,.13-.23A9.63,9.63,0,0,1,109.07,51a8.15,8.15,0,0,1,4.41-1.26A8.73,8.73,0,0,1,119.84,52Zm18.7-2.27a8.14,8.14,0,0,0-4.4,1.26,9.54,9.54,0,0,0-3.23,3.49l-.13.23,0,0V50.5H125.6V77.33h5.14V61.47a9.32,9.32,0,0,1,.44-2.87,7.7,7.7,0,0,1,1.25-2.36,5.68,5.68,0,0,1,2-1.58,5.78,5.78,0,0,1,2.6-.57,4.59,4.59,0,0,1,3.79,1.52,8.14,8.14,0,0,1,1.31,4.8V77.33h5.13V58.83c0-3-.78-5.31-2.31-6.8A8.74,8.74,0,0,0,138.54,49.76Zm-91.15-1a10.06,10.06,0,0,1,3.34-3.31A10.26,10.26,0,0,1,59,44.75a7.84,7.84,0,0,1,2.56,1.59,8.37,8.37,0,0,1,1.79,2.43,14.05,14.05,0,0,1,.78,2h5.82a14.44,14.44,0,0,0-1.32-4.24,12.88,12.88,0,0,0-3.13-4A13.59,13.59,0,0,0,61,40.08a16.87,16.87,0,0,0-5.42-.86,15,15,0,0,0-6.87,1.56A15.6,15.6,0,0,0,43.59,45a19.35,19.35,0,0,0-3.24,6.2,25.79,25.79,0,0,0,0,15.1,19.41,19.41,0,0,0,3.24,6.21,15.37,15.37,0,0,0,5.14,4.19,15.09,15.09,0,0,0,6.87,1.53,14.66,14.66,0,0,0,5.7-1.09,13.31,13.31,0,0,0,4.49-3.09,15.16,15.16,0,0,0,3-4.76,19.23,19.23,0,0,0,.83-2.63H63.94l-.15.47A10.39,10.39,0,0,1,62,70.33a8,8,0,0,1-6.4,3A9.33,9.33,0,0,1,50.73,72a10.16,10.16,0,0,1-3.34-3.31,15.63,15.63,0,0,1-1.89-4.68,23.5,23.5,0,0,1,0-10.64A15.52,15.52,0,0,1,47.39,48.73Zm49,9.48a18.43,18.43,0,0,1,.84,5.68,18.62,18.62,0,0,1-.84,5.73A12.81,12.81,0,0,1,94,74.08,11.4,11.4,0,0,1,90.06,77,13.68,13.68,0,0,1,79.5,77a11.37,11.37,0,0,1-3.9-2.93,13,13,0,0,1-2.44-4.46,20,20,0,0,1,0-11.41,13,13,0,0,1,2.44-4.46,11.25,11.25,0,0,1,3.9-2.92,13.56,13.56,0,0,1,10.56,0A11.25,11.25,0,0,1,94,53.75,12.81,12.81,0,0,1,96.4,58.21Zm-4.29,5.68a15.76,15.76,0,0,0-.42-3.53,9.8,9.8,0,0,0-1.32-3.15A7.13,7.13,0,0,0,88.08,55a6.69,6.69,0,0,0-6.6,0,7.34,7.34,0,0,0-2.29,2.25,10,10,0,0,0-1.31,3.15,15.17,15.17,0,0,0,0,7.09,10.42,10.42,0,0,0,1.31,3.15,7.3,7.3,0,0,0,2.29,2.27,6.63,6.63,0,0,0,6.6,0,7.09,7.09,0,0,0,2.29-2.27,10.19,10.19,0,0,0,1.32-3.15A15.75,15.75,0,0,0,92.11,63.89ZM273.76,52a8.73,8.73,0,0,0-6.36-2.27A8.15,8.15,0,0,0,263,51a9.63,9.63,0,0,0-3.23,3.49l-.13.23,0,0V50.5h-5.13V77.33h5.13V61.47A9,9,0,0,1,260,58.6a7.7,7.7,0,0,1,1.25-2.36,5.74,5.74,0,0,1,1.95-1.58,5.85,5.85,0,0,1,2.61-.57,4.57,4.57,0,0,1,3.78,1.52,8.14,8.14,0,0,1,1.31,4.8V77.33h5.13V58.83C276.07,55.81,275.3,53.52,273.76,52Zm-53.38-10.6a2.91,2.91,0,1,0,2.91,2.91A2.92,2.92,0,0,0,220.38,41.43Zm-2.57,35.9h5.13V50.5h-5.13Zm32.43-19.12a18.43,18.43,0,0,1,.84,5.68,18.62,18.62,0,0,1-.84,5.73,12.81,12.81,0,0,1-2.43,4.46,11.37,11.37,0,0,1-3.9,2.93,13.68,13.68,0,0,1-10.56,0,11.4,11.4,0,0,1-3.91-2.93A12.81,12.81,0,0,1,227,69.62a19.79,19.79,0,0,1,0-11.41,12.81,12.81,0,0,1,2.43-4.46,11.38,11.38,0,0,1,3.91-2.92,13.56,13.56,0,0,1,10.56,0,11.34,11.34,0,0,1,3.9,2.92A12.81,12.81,0,0,1,250.24,58.21ZM246,63.89a15.2,15.2,0,0,0-.42-3.53,10,10,0,0,0-1.31-3.15A7.45,7.45,0,0,0,241.93,55a6.69,6.69,0,0,0-6.6,0A7.13,7.13,0,0,0,233,57.21a9.8,9.8,0,0,0-1.32,3.15,15.17,15.17,0,0,0,0,7.09A10.19,10.19,0,0,0,233,70.6a7.09,7.09,0,0,0,2.29,2.27,6.63,6.63,0,0,0,6.6,0,7.3,7.3,0,0,0,2.29-2.27,10.42,10.42,0,0,0,1.31-3.15A15.14,15.14,0,0,0,246,63.89Zm-72.23-4.3a16.78,16.78,0,0,1,.37,5.67H155.65v.21a11.57,11.57,0,0,0,.42,3.12,8.14,8.14,0,0,0,1.27,2.65,6.35,6.35,0,0,0,2.15,1.83,6.69,6.69,0,0,0,3.1.68,5.84,5.84,0,0,0,6-3.87h4.95a11.47,11.47,0,0,1-1.25,3,10.61,10.61,0,0,1-2.52,2.87,10.34,10.34,0,0,1-3.31,1.76,13,13,0,0,1-9-.44,10.79,10.79,0,0,1-3.79-2.89,12.8,12.8,0,0,1-2.33-4.46,19.62,19.62,0,0,1-.79-5.74,17.45,17.45,0,0,1,.84-5.44A14.34,14.34,0,0,1,153.74,54a11.76,11.76,0,0,1,3.75-3.08,10.56,10.56,0,0,1,4.95-1.14,10.43,10.43,0,0,1,5.22,1.32,11.77,11.77,0,0,1,3.83,3.5A14.72,14.72,0,0,1,173.72,59.59Zm-17.5-1a8.54,8.54,0,0,0-.54,2.6H168.9a11,11,0,0,0-.53-2.49,7.63,7.63,0,0,0-1.3-2.35,6.52,6.52,0,0,0-2-1.64,5.61,5.61,0,0,0-2.63-.62,6.37,6.37,0,0,0-2.72.57,6.29,6.29,0,0,0-2.1,1.58A8,8,0,0,0,156.22,58.59Zm53.33-15.32-5.13,1.37V50.5h-2.58v4.06h2.58V70.84a17.16,17.16,0,0,0,.31,3,4.12,4.12,0,0,0,3,3.35,11.13,11.13,0,0,0,3.45.44,14.63,14.63,0,0,0,1.77-.11l1.59-.19-.62-4.08-.31,0q-.59,0-1.17,0a3.81,3.81,0,0,1-1.53-.25,1.93,1.93,0,0,1-.89-.8,3.23,3.23,0,0,1-.37-1.24,15.9,15.9,0,0,1-.07-1.66V54.56h5V50.5h-5ZM185.05,56a5.6,5.6,0,0,1,2.31-1.53,7.57,7.57,0,0,1,2.34-.4,6,6,0,0,1,4,1.33A5.42,5.42,0,0,1,195.29,58h5.27a10.21,10.21,0,0,0-.95-2.81,9.36,9.36,0,0,0-2.44-3,10.76,10.76,0,0,0-3.43-1.78,13.72,13.72,0,0,0-4.09-.6,12,12,0,0,0-5.32,1.12,10.86,10.86,0,0,0-3.79,3,13.55,13.55,0,0,0-2.29,4.59,20.86,20.86,0,0,0-.76,5.69,18.46,18.46,0,0,0,.79,5.52,12.64,12.64,0,0,0,2.31,4.38,10.91,10.91,0,0,0,3.74,2.9,11.87,11.87,0,0,0,5.13,1.06,10.65,10.65,0,0,0,7.65-2.76,12,12,0,0,0,3.09-5.43H195a6.7,6.7,0,0,1-1.36,2.17,5.49,5.49,0,0,1-4.13,1.7,5.73,5.73,0,0,1-3.16-.85,6.76,6.76,0,0,1-2.12-2.2A9.92,9.92,0,0,1,183,67.63a16,16,0,0,1-.37-3.42,15.72,15.72,0,0,1,.69-5.11A8.71,8.71,0,0,1,185.05,56Z" fill="#fff"/><path d="M282.7,49.08a2.49,2.49,0,1,1-2.49-2.52A2.38,2.38,0,0,1,282.7,49.08Zm-.38,0a2.11,2.11,0,1,0-2.11,2.15A2,2,0,0,0,282.32,49.08Zm-1.68.21.65.94h-.43l-.6-.88h-.53v.88h-.37V47.82h.81c.67,0,1,.27,1,.77A.67.67,0,0,1,280.64,49.29Zm-.42-.26c.4,0,.59-.14.59-.44s-.19-.45-.59-.45h-.49V49Z" fill="#fff"/><path d="M184,95.53l-3.33,11.74h-2.57l-2.8-9.56-2.83,9.56h-2.57l-3.34-11.74h2.16l2.6,9.39L174,95.53h2.56l2.7,9.31,2.61-9.31Zm11.07,6.57h-7.38c.09,2.66,1.25,3.61,3.85,3.61a11.34,11.34,0,0,0,2.94-.44V107a11.91,11.91,0,0,1-3.22.46c-3.9,0-5.84-1.79-5.84-6.09,0-4.05,1.88-6.05,5-6.05s4.69,2,4.69,6.11Zm-7.39-1.42H193c0-2.8-1-3.79-2.6-3.79S187.73,97.86,187.67,100.68ZM202.29,107v-1.75a11.38,11.38,0,0,0,3.39.51c1.89,0,2.66-.64,2.66-1.72,0-.92-.43-1.35-1.58-1.6l-1.69-.34c-2.15-.44-3-1.51-3-3.24,0-2.06,1.57-3.51,4.91-3.51a11,11,0,0,1,2.86.36v1.73a10.88,10.88,0,0,0-2.81-.36c-2.15,0-2.85.76-2.85,1.72,0,.8.4,1.32,1.54,1.57l1.69.32c2.13.44,3.07,1.4,3.07,3.25,0,2.19-1.67,3.55-4.77,3.55A11.18,11.18,0,0,1,202.29,107Zm9.77-5.58c0-4.19,2-6.07,5.21-6.07s5.21,1.88,5.21,6.06-2,6.08-5.21,6.08S212.06,105.62,212.06,101.42Zm8.14,0c0-3.29-1.12-4.33-2.93-4.33s-2.93,1-2.93,4.27,1.12,4.33,2.93,4.33S220.2,104.67,220.2,101.45Zm4.73-11.61h2.25v17.43h-2.25Zm15.42,5.69L236,107.27h-2.86l-4.32-11.74h2.36l3.46,9.72,3.45-9.72Zm10.59,6.57h-7.38c.09,2.66,1.25,3.61,3.85,3.61a11.34,11.34,0,0,0,2.94-.44V107a11.91,11.91,0,0,1-3.22.46c-3.9,0-5.84-1.79-5.84-6.09,0-4.05,1.88-6.05,5-6.05s4.69,2,4.69,6.11Zm-7.39-1.42h5.28c-.05-2.8-1-3.79-2.6-3.79S243.61,97.86,243.55,100.68Zm15.21-9.37H261v16h-2.28Zm9.79,2h-5.22v-2h12.74v2h-5.23v14h-2.29Z" fill="#fff"/><path d="M282.71,92.33a2,2,0,1,1-2-2A1.93,1.93,0,0,1,282.71,92.33Zm-.31,0a1.71,1.71,0,1,0-1.7,1.73A1.62,1.62,0,0,0,282.4,92.33Zm-1.35.17.51.76h-.34l-.49-.71h-.42v.71H280v-2h.66c.54,0,.82.22.82.62A.56.56,0,0,1,281.05,92.5Zm-.34-.22c.32,0,.47-.11.47-.35s-.16-.36-.47-.36h-.4v.71Z" fill="#fff"/></g></svg>