<svg xmlns="http://www.w3.org/2000/svg" viewBox="0 0 315.29 126.76"><g fill="none"><path d="M236.85 78.23h39.22V91.3h-39.22zM16.38 0H55.6v39.22H16.38zM0 58.73h39.22v39.22H0z"/><path d="M276.07 77.33h39.22v39.22h-39.22zm-220.9 1.33h39.22v39.22H55.17zm93.67 8.87h39.22v39.22h-39.22z"/></g><path d="M197.57 45.63c0 1.1-18.67-11.08-61.12-11.08S75.34 46.73 75.34 45.63c0-.37 24.12-16.6 61.11-16.6s61.12 16.23 61.12 16.6M119.84 52c1.54 1.49 2.31 3.78 2.31 6.8v18.5H117V60.41a8.14 8.14 0 00-1.31-4.8 4.57 4.57 0 00-3.78-1.52 5.85 5.85 0 00-2.61.57 5.74 5.74 0 00-1.95 1.58 7.7 7.7 0 00-1.25 2.36 9 9 0 00-.45 2.87v15.86h-5.13V50.5h5.13v4.2l.13-.23a9.63 9.63 0 013.29-3.47 8.15 8.15 0 014.41-1.26 8.73 8.73 0 016.36 2.26zm18.7-2.27a8.14 8.14 0 00-4.4 1.26 9.54 9.54 0 00-3.23 3.49l-.13.23V50.5h-5.18v26.83h5.14V61.47a9.32 9.32 0 01.44-2.87 7.7 7.7 0 011.25-2.36 5.68 5.68 0 012-1.58 5.78 5.78 0 012.6-.57 4.59 4.59 0 013.79 1.52 8.14 8.14 0 011.31 4.8v16.92h5.13v-18.5c0-3-.78-5.31-2.31-6.8a8.74 8.74 0 00-6.41-2.27zm-91.15-1a10.06 10.06 0 013.34-3.31 10.26 10.26 0 018.27-.67 7.84 7.84 0 012.56 1.59 8.37 8.37 0 011.79 2.43 14.05 14.05 0 01.78 2h5.82a14.44 14.44 0 00-1.32-4.24 12.88 12.88 0 00-3.13-4 13.59 13.59 0 00-4.5-2.45 16.87 16.87 0 00-5.42-.86 15 15 0 00-6.87 1.56A15.6 15.6 0 0043.59 45a19.35 19.35 0 00-3.24 6.2 25.79 25.79 0 000 15.1 19.41 19.41 0 003.24 6.21 15.37 15.37 0 005.14 4.19 15.09 15.09 0 006.87 1.53 14.66 14.66 0 005.7-1.09 13.31 13.31 0 004.49-3.09 15.16 15.16 0 003-4.76 19.23 19.23 0 00.83-2.63h-5.68l-.15.47a10.39 10.39 0 01-1.79 3.2 8 8 0 01-6.4 3A9.33 9.33 0 0150.73 72a10.16 10.16 0 01-3.34-3.31 15.63 15.63 0 01-1.89-4.68 23.5 23.5 0 010-10.64 15.52 15.52 0 011.89-4.64zm49 9.48a18.43 18.43 0 01.84 5.68 18.62 18.62 0 01-.84 5.73A12.81 12.81 0 0194 74.08 11.4 11.4 0 0190.06 77a13.68 13.68 0 01-10.56 0 11.37 11.37 0 01-3.9-2.93 13 13 0 01-2.44-4.46 20 20 0 010-11.41 13 13 0 012.44-4.46 11.25 11.25 0 013.9-2.92 13.56 13.56 0 0110.56 0A11.25 11.25 0 0194 53.75a12.81 12.81 0 012.4 4.46zm-4.29 5.68a15.76 15.76 0 00-.42-3.53 9.8 9.8 0 00-1.32-3.15A7.13 7.13 0 0088.08 55a6.69 6.69 0 00-6.6 0 7.34 7.34 0 00-2.29 2.25 10 10 0 00-1.31 3.15 15.17 15.17 0 000 7.09 10.42 10.42 0 001.31 3.15 7.3 7.3 0 002.29 2.27 6.63 6.63 0 006.6 0 7.09 7.09 0 002.29-2.27 10.19 10.19 0 001.32-3.15 15.75 15.75 0 00.42-3.6zM273.76 52a8.73 8.73 0 00-6.36-2.27A8.15 8.15 0 00263 51a9.63 9.63 0 00-3.23 3.49l-.13.23V50.5h-5.13v26.83h5.13V61.47a9 9 0 01.36-2.87 7.7 7.7 0 011.25-2.36 5.74 5.74 0 011.95-1.58 5.85 5.85 0 012.61-.57 4.57 4.57 0 013.78 1.52 8.14 8.14 0 011.31 4.8v16.92h5.13v-18.5c.04-3.02-.73-5.31-2.27-6.83zm-53.38-10.6a2.91 2.91 0 102.91 2.91 2.92 2.92 0 00-2.91-2.88zm-2.57 35.9h5.13V50.5h-5.13zm32.43-19.12a18.43 18.43 0 01.84 5.68 18.62 18.62 0 01-.84 5.73 12.81 12.81 0 01-2.43 4.46 11.37 11.37 0 01-3.9 2.93 13.68 13.68 0 01-10.56 0 11.4 11.4 0 01-3.91-2.93 12.81 12.81 0 01-2.44-4.43 19.79 19.79 0 010-11.41 12.81 12.81 0 012.43-4.46 11.38 11.38 0 013.91-2.92 13.56 13.56 0 0110.56 0 11.34 11.34 0 013.9 2.92 12.81 12.81 0 012.44 4.46zM246 63.89a15.2 15.2 0 00-.42-3.53 10 10 0 00-1.31-3.15 7.45 7.45 0 00-2.34-2.21 6.69 6.69 0 00-6.6 0 7.13 7.13 0 00-2.33 2.21 9.8 9.8 0 00-1.32 3.15 15.17 15.17 0 000 7.09A10.19 10.19 0 00233 70.6a7.09 7.09 0 002.29 2.27 6.63 6.63 0 006.6 0 7.3 7.3 0 002.29-2.27 10.42 10.42 0 001.31-3.15 15.14 15.14 0 00.51-3.56zm-72.23-4.3a16.78 16.78 0 01.37 5.67h-18.49v.21a11.57 11.57 0 00.42 3.12 8.14 8.14 0 001.27 2.65 6.35 6.35 0 002.15 1.83 6.69 6.69 0 003.1.68 5.84 5.84 0 006-3.87h4.95a11.47 11.47 0 01-1.25 3 10.61 10.61 0 01-2.52 2.87 10.34 10.34 0 01-3.31 1.76 13 13 0 01-9-.44 10.79 10.79 0 01-3.79-2.89 12.8 12.8 0 01-2.33-4.46 19.62 19.62 0 01-.79-5.74 17.45 17.45 0 01.84-5.44 14.34 14.34 0 012.35-4.54 11.76 11.76 0 013.75-3.08 10.56 10.56 0 014.95-1.14 10.43 10.43 0 015.22 1.32 11.77 11.77 0 013.83 3.5 14.72 14.72 0 012.23 4.99zm-17.5-1a8.54 8.54 0 00-.54 2.6h13.17a11 11 0 00-.53-2.49 7.63 7.63 0 00-1.3-2.35 6.52 6.52 0 00-2-1.64 5.61 5.61 0 00-2.63-.62 6.37 6.37 0 00-2.72.57 6.29 6.29 0 00-2.1 1.58 8 8 0 00-1.4 2.35zm53.33-15.32l-5.13 1.37v5.86h-2.58v4.06h2.58v16.28a17.16 17.16 0 00.31 3 4.12 4.12 0 003 3.35 11.13 11.13 0 003.45.44 14.63 14.63 0 001.77-.11l1.59-.19-.62-4.08h-1.48a3.81 3.81 0 01-1.53-.25 1.93 1.93 0 01-.89-.8 3.23 3.23 0 01-.37-1.24 15.9 15.9 0 01-.07-1.66V54.56h5V50.5h-5zM185.05 56a5.6 5.6 0 012.31-1.53 7.57 7.57 0 012.34-.4 6 6 0 014 1.33 5.42 5.42 0 011.59 2.6h5.27a10.21 10.21 0 00-.95-2.81 9.36 9.36 0 00-2.44-3 10.76 10.76 0 00-3.43-1.78 13.72 13.72 0 00-4.09-.6 12 12 0 00-5.32 1.12 10.86 10.86 0 00-3.79 3 13.55 13.55 0 00-2.29 4.59 20.86 20.86 0 00-.76 5.69 18.46 18.46 0 00.79 5.52 12.64 12.64 0 002.31 4.38 10.91 10.91 0 003.74 2.9 11.87 11.87 0 005.13 1.06 10.65 10.65 0 007.65-2.76 12 12 0 003.09-5.43H195a6.7 6.7 0 01-1.36 2.17 5.49 5.49 0 01-4.13 1.7 5.73 5.73 0 01-3.16-.85 6.76 6.76 0 01-2.12-2.2 9.92 9.92 0 01-1.23-3.07 16 16 0 01-.37-3.42 15.72 15.72 0 01.69-5.11 8.71 8.71 0 011.73-3.1zm97.65-6.92a2.49 2.49 0 11-2.49-2.52 2.38 2.38 0 012.49 2.52zm-.38 0a2.11 2.11 0 10-2.11 2.15 2 2 0 002.11-2.15zm-1.68.21l.65.94h-.43l-.6-.88h-.53v.88h-.37v-2.41h.81c.67 0 1 .27 1 .77a.67.67 0 01-.53.7zm-.42-.26c.4 0 .59-.14.59-.44s-.19-.45-.59-.45h-.49V49zM184 95.53l-3.33 11.74h-2.57l-2.8-9.56-2.83 9.56h-2.57l-3.34-11.74h2.16l2.6 9.39 2.68-9.39h2.56l2.7 9.31 2.61-9.31zm11.07 6.57h-7.38c.09 2.66 1.25 3.61 3.85 3.61a11.34 11.34 0 002.94-.44V107a11.91 11.91 0 01-3.22.46c-3.9 0-5.84-1.79-5.84-6.09 0-4.05 1.88-6.05 5-6.05s4.69 2 4.69 6.11zm-7.39-1.42H193c0-2.8-1-3.79-2.6-3.79s-2.67.97-2.73 3.79zm14.61 6.32v-1.75a11.38 11.38 0 003.39.51c1.89 0 2.66-.64 2.66-1.72 0-.92-.43-1.35-1.58-1.6l-1.69-.34c-2.15-.44-3-1.51-3-3.24 0-2.06 1.57-3.51 4.91-3.51a11 11 0 012.86.36v1.73a10.88 10.88 0 00-2.81-.36c-2.15 0-2.85.76-2.85 1.72 0 .8.4 1.32 1.54 1.57l1.69.32c2.13.44 3.07 1.4 3.07 3.25 0 2.19-1.67 3.55-4.77 3.55a11.18 11.18 0 01-3.42-.49zm9.77-5.58c0-4.19 2-6.07 5.21-6.07s5.21 1.88 5.21 6.06-2 6.08-5.21 6.08-5.21-1.87-5.21-6.07zm8.14 0c0-3.29-1.12-4.33-2.93-4.33s-2.93 1-2.93 4.27 1.12 4.33 2.93 4.33 2.93-1.02 2.93-4.24zm4.73-11.61h2.25v17.43h-2.25zm15.42 5.69L236 107.27h-2.86l-4.32-11.74h2.36l3.46 9.72 3.45-9.72zm10.59 6.57h-7.38c.09 2.66 1.25 3.61 3.85 3.61a11.34 11.34 0 002.94-.44V107a11.91 11.91 0 01-3.22.46c-3.9 0-5.84-1.79-5.84-6.09 0-4.05 1.88-6.05 5-6.05s4.69 2 4.69 6.11zm-7.39-1.42h5.28c-.05-2.8-1-3.79-2.6-3.79s-2.62 1-2.68 3.82zm15.21-9.37H261v16h-2.28zm9.79 2h-5.22v-2h12.74v2h-5.23v14h-2.29zm14.16-.95a2 2 0 11-2-2 1.93 1.93 0 012 2zm-.31 0a1.71 1.71 0 10-1.7 1.73 1.62 1.62 0 001.7-1.73zm-1.35.17l.51.76h-.34l-.49-.71h-.42v.71H280v-2h.66c.54 0 .82.22.82.62a.56.56 0 01-.43.62zm-.34-.22c.32 0 .47-.11.47-.35s-.16-.36-.47-.36h-.4v.71z" data-name="Layer 3" fill="#fff"/></svg>