<svg xmlns="http://www.w3.org/2000/svg" viewBox="0 0 2090.48 991.63"><path d="M2090.48 16.74v974.89H0v-.86c0 .06 0 .11.02.14 8.76 18.79 230.87-338.26 956.83-676.79C1675.33-20.9 2090.48 33.79 2090.48 16.74z" fill="#2f6fb6"/><path d="M2090.34 16.18s-.03-.05-.06-.08c-4.11-4.03-189.91-34.13-469.27 0-199.15 24.33-445.86 81.3-708.18 203.62C283.4 513.23 0 979.71 0 990.77c0 .06 0 .11.02.14 8.76 18.79 230.87-338.26 956.83-676.79C1675.33-20.9 2090.48 33.79 2090.48 16.74c0-.18-.05-.37-.14-.56z" fill="#2a98d4"/></svg>